# xmcd
#
# Track frame offsets:
#	150
#	13912
#	32892
#	50042
#	66286
#	81551
#	93693
#	108426
#	126559
#	144547
#
# Disc length: 2085 seconds
#
# Revision: 0
# Processed by: cddbd v1.5.1PL0 Copyright (c) Steve Scherf et al.
# Submitted via: dBpowerAMP V4.0
#
DISCID=9c08230a
DTITLE=Tim Miller - The Journey Home
DYEAR=2005
DGENRE=Southern Gospel
TTITLE0=My Future Looks Bright
TTITLE1=Dancing with Angels
TTITLE2=The In Crowd
TTITLE3=Look Up 
TTITLE4=Closing Time
TTITLE5=Praise the Lord
TTITLE6=Grace Took Its Place
TTITLE7=A Sparkle in the Eye
TTITLE8=The One You Should Be Talking To
TTITLE9=Almost Home
EXTD=
EXTT0=
EXTT1=
EXTT2=
EXTT3=
EXTT4=
EXTT5=
EXTT6=
EXTT7=
EXTT8=
EXTT9=
PLAYORDER=
